<svg id="Layer_1" enable-background="new 0 0 512 512" height="512" viewBox="0 0 512 512" width="512" xmlns="http://www.w3.org/2000/svg"><g><g fill="#87c8f4"><path d="m210.359 474.365-37.783-6.837c-.73-.133-1.479.066-2.048.541s-.897 1.178-.897 1.919v39.512c0 1.381 1.119 2.5 2.5 2.5h13.216c10.742 0 20.084-7.273 22.719-17.686l4.271-16.876c.17-.671.054-1.384-.321-1.966-.375-.583-.975-.984-1.657-1.107z"/><path d="m339.483 468.068c-.569-.475-1.318-.674-2.048-.541l-37.783 6.837c-.682.124-1.282.524-1.657 1.107s-.492 1.295-.321 1.966l4.271 16.876c2.636 10.414 11.978 17.687 22.72 17.687h13.216c1.381 0 2.5-1.119 2.5-2.5v-39.513c0-.74-.329-1.444-.898-1.919z"/></g><g><path d="m355.029 433.341c8.275 0 14.983 6.71 14.983 14.987 0 16.37-13.266 29.64-29.632 29.64h-169.012c-16.365 0-29.632-13.27-29.632-29.64 0-8.277 6.708-14.987 14.983-14.987l99.281-10z" fill="#dcf1ff"/><path d="m370.012 448.328c0 16.37-13.27 29.64-29.64 29.64h-30c16.37 0 29.64-13.27 29.64-29.64 0-8.28-6.71-14.99-14.99-14.99h30c8.28 0 14.99 6.71 14.99 14.99z" fill="#b6e5ff"/></g><g><path d="m370.4 204.85v213.12c0 8.49-6.88 15.37-15.37 15.37h-198.06c-8.49 0-15.37-6.88-15.37-15.37v-213.12c0-9.36 7.59-16.95 16.95-16.95h194.9c9.36 0 16.95 7.59 16.95 16.95z" fill="#ff485e"/></g><g><path d="m370.4 204.85v213.12c0 8.49-6.88 15.37-15.37 15.37h-30c8.49 0 15.37-6.88 15.37-15.37v-213.12c0-9.36-7.59-16.95-16.95-16.95h30c9.36 0 16.95 7.59 16.95 16.95z" fill="#d82356"/></g><path d="m354.83 11.018c-9.21-2.08-18.47-3.86-27.77-5.35-56.37-9.05-114.03-7.26-169.89 5.35-9.12 2.06-15.57 10.21-15.57 19.55v140.37c0 9.37 7.59 16.96 16.95 16.96h194.9c9.36 0 16.95-7.59 16.95-16.96v-140.37c0-9.34-6.45-17.49-15.57-19.55z" fill="#ff485e"/><g><path d="m370.4 30.568v140.37c0 9.37-7.59 16.96-16.95 16.96h-194.9c-9.36 0-16.95-7.59-16.95-16.96v-13.04h181.85c9.36 0 16.95-7.59 16.95-16.96v-116.37c0-8.56-5.42-16.12-13.34-18.9 9.3 1.49 18.56 3.27 27.77 5.35 9.12 2.06 15.57 10.21 15.57 19.55z" fill="#d82356"/></g><g fill="#fff"><g><path d="m228.089 209.446h-39.798c-13.83 0-23.905 9.248-24.672 22.139-.246 4.137 2.906 7.69 7.041 7.936.152.009.303.013.453.013 3.938 0 7.243-3.073 7.48-7.057.28-4.712 4.508-8.037 9.051-8.037l40.445.013c4.142 0 7.5-3.359 7.5-7.503s-3.358-7.504-7.5-7.504z"/><path d="m228.089 150.42-40.446.013c-2.535 0-4.48-.626-6.189-2.143-1.709-1.518-2.726-3.611-2.861-5.894-.247-4.137-3.789-7.282-7.932-7.045-4.135.246-7.288 3.799-7.042 7.936.374 6.284 3.171 12.047 7.877 16.226 4.347 3.86 9.842 5.943 15.606 5.943l40.986-.029c4.142 0 7.5-3.359 7.5-7.503s-3.357-7.504-7.499-7.504z"/></g><g><path d="m210.95 69.863c-4.142 0-7.5 3.358-7.5 7.5v15.342c0 4.142 3.358 7.5 7.5 7.5s7.5-3.358 7.5-7.5v-15.342c0-4.142-3.358-7.5-7.5-7.5z"/><path d="m241 69.863c-4.142 0-7.5 3.358-7.5 7.5v15.342c0 4.142 3.358 7.5 7.5 7.5s7.5-3.358 7.5-7.5v-15.342c0-4.142-3.358-7.5-7.5-7.5z"/><path d="m271 69.863c-4.142 0-7.5 3.358-7.5 7.5v15.342c0 4.142 3.358 7.5 7.5 7.5s7.5-3.358 7.5-7.5v-15.342c0-4.142-3.358-7.5-7.5-7.5z"/><path d="m301.05 69.863c-4.142 0-7.5 3.358-7.5 7.5v15.342c0 4.142 3.358 7.5 7.5 7.5s7.5-3.358 7.5-7.5v-15.342c0-4.142-3.358-7.5-7.5-7.5z"/></g></g></g></svg>